<svg width="261" height="242" viewBox="0 0 261 242" fill="none" xmlns="http://www.w3.org/2000/svg">
<g opacity="0.34">
<g clip-path="url(#clip0_241_2100)">
<path d="M1.00744 75.8879C0.703099 107.793 38.505 212.956 60.0119 236.936C83.7126 249.706 139.154 225.079 148.893 201.911C152.57 181.305 104.763 69.9405 83.5097 43.3993C59.0862 38.7581 12.9022 56.9299 1.00744 75.8879Z" stroke="#EEEAF8" stroke-width="1.23" stroke-miterlimit="10"/>
<path d="M106.209 3.17518C99.0479 5.99838 93.1047 11.2441 89.414 17.9986C85.7233 24.7532 84.5192 32.5884 86.0113 40.1394C87.5034 47.6904 91.5972 54.4787 97.5796 59.3218C103.562 64.1649 111.054 66.7559 118.75 66.6433C119.278 64.9385 120.051 63.3196 121.045 61.8373C114.136 62.5017 107.224 60.596 101.632 56.4846C96.0394 52.3731 92.1587 46.3446 90.7318 39.5517C89.305 32.7588 90.4322 25.6783 93.8978 19.6642C97.3634 13.6502 102.924 9.12466 109.517 6.95304C116.11 4.78142 123.271 5.11613 129.633 7.89316C135.994 10.6702 141.109 15.6947 143.998 22.0057C146.888 28.3168 147.35 35.4715 145.296 42.1017C143.241 48.7319 138.815 54.3723 132.864 57.9442C131.17 59.9815 129.879 62.3227 129.06 64.8426C129.465 64.7032 129.884 64.589 130.328 64.4242C134.406 62.8853 138.138 60.5512 141.306 57.5575C144.475 54.5638 147.016 50.9702 148.784 46.9856C150.551 43.001 151.509 38.7048 151.602 34.3468C151.695 29.9888 150.92 25.6558 149.324 21.5997C147.727 17.5436 145.34 13.8452 142.302 10.7196C139.263 7.594 135.634 5.10343 131.625 3.39266C127.616 1.68189 123.306 0.785045 118.947 0.754239C114.589 0.723434 110.267 1.55929 106.234 3.21322L106.209 3.17518Z" fill="#EEEAF8"/>
<path d="M73.9229 42.7271C73.9673 40.9311 74.4803 39.1778 75.411 37.6411C76.3417 36.1044 77.6578 34.8376 79.2289 33.9662C80.8 33.0948 82.5716 32.6491 84.368 32.6733C86.1644 32.6975 87.9233 33.1907 89.4705 34.104C91.0176 35.0173 92.2991 36.3191 93.1882 37.8803C94.0772 39.4415 94.5428 41.2079 94.5389 43.0045C94.535 44.801 94.0616 46.5654 93.1658 48.1227C92.27 49.68 90.9827 50.9762 89.4317 51.8828" stroke="#EEEAF8" stroke-width="3.69" stroke-miterlimit="10"/>
<path d="M177.818 88.2519L215.861 114.083L221.643 112.815L225.752 120.702L228.161 119.764L230.228 123.733L237.203 123.378L239.549 127.766L245.889 127.576L248.311 135.983L254.233 135.679L255.425 140.751L263.186 139.242L264.074 146.61L280.559 149.793C280.818 149.841 281.085 149.812 281.329 149.711C281.572 149.61 281.78 149.44 281.928 149.222L285.327 144.15C285.47 143.931 285.546 143.675 285.546 143.414C285.546 143.153 285.47 142.897 285.327 142.679L276.26 128.476L269.083 130.378L267.624 122.617L262.412 123.403L260.51 117.798L251.786 118.648L249.643 112.701L244.697 112.155L242.453 105.549L237.989 105.079V102.543L229.112 101.643L228.225 95.9492L190.144 70.0674" stroke="#EEEAF8" stroke-width="1.23" stroke-miterlimit="10"/>
<path d="M283.019 147.7L206.769 95.9746" stroke="#EEEAF8" stroke-width="1.23" stroke-miterlimit="10"/>
<path d="M284.313 141.03L210.269 90.8008" stroke="#EEEAF8" stroke-width="1.23" stroke-miterlimit="10"/>
<path d="M170.876 98.4907L197.101 59.8294C199.916 55.6795 198.834 50.0335 194.684 47.2185L158.72 22.8231C154.57 20.0081 148.924 21.0903 146.109 25.2401L119.884 63.9015C117.069 68.0513 118.151 73.6974 122.301 76.5124L158.265 100.908C162.415 103.723 168.061 102.641 170.876 98.4907Z" stroke="#EEEAF8" stroke-width="1.23" stroke-miterlimit="10"/>
<path d="M130.011 62.4458L148.5 35.1944C149.256 34.0842 150.421 33.3191 151.741 33.0671C153.06 32.8151 154.426 33.0968 155.538 33.8503C156.65 34.6043 157.418 35.769 157.672 37.0885C157.926 38.4081 157.647 39.7746 156.894 40.8882L138.444 68.0888C137.688 69.1991 136.522 69.9642 135.203 70.2161C133.883 70.4681 132.518 70.1865 131.406 69.433C130.301 68.6855 129.536 67.5332 129.275 66.2256C129.014 64.9179 129.278 63.56 130.011 62.4458Z" stroke="#EEEAF8" stroke-width="1.23" stroke-miterlimit="10"/>
<path d="M44.8836 84.8024C45.9228 87.4444 46.1552 90.3352 45.5516 93.1092C44.9479 95.8833 43.5352 98.4161 41.4921 100.387C39.449 102.359 36.8673 103.68 34.0734 104.184C31.2795 104.688 28.3989 104.352 25.7958 103.219C23.1927 102.086 20.9841 100.206 19.4491 97.8179C17.9142 95.4297 17.1219 92.6398 17.1724 89.8013C17.223 86.9627 18.1141 84.2029 19.7331 81.8708C21.352 79.5387 23.6262 77.739 26.268 76.6993C28.0222 76.0071 29.8956 75.6677 31.7811 75.7004C33.6667 75.7331 35.5272 76.1374 37.2563 76.8901C38.9854 77.6427 40.5491 78.729 41.8579 80.0867C43.1667 81.4444 44.1949 83.0469 44.8836 84.8024Z" stroke="#EEEAF8" stroke-width="1.23" stroke-miterlimit="10"/>
<path d="M39.0502 87.1102C39.633 88.5969 39.7621 90.2229 39.4212 91.7828C39.0803 93.3428 38.2847 94.7668 37.135 95.8748C35.9852 96.9828 34.5328 97.7253 32.9613 98.0083C31.3898 98.2913 29.7697 98.1022 28.3056 97.4648C26.8415 96.8275 25.5991 95.7705 24.7355 94.4275C23.8718 93.0844 23.4256 91.5155 23.4531 89.919C23.4807 88.3224 23.9808 86.7699 24.8903 85.4574C25.7998 84.145 27.0779 83.1315 28.5631 82.5451C30.5592 81.7605 32.7851 81.8007 34.7517 82.6567C36.7182 83.5128 38.2643 85.1146 39.0502 87.1102Z" fill="#EEEAF8"/>
<path d="M70.1331 117.366L60.1987 121.279C58.9671 121.764 58.362 123.156 58.8471 124.387L62.7604 134.322C63.2455 135.553 64.6372 136.158 65.8687 135.673L75.8031 131.76C77.0347 131.275 77.6398 129.883 77.1547 128.652L73.2414 118.717C72.7563 117.486 71.3646 116.88 70.1331 117.366Z" stroke="#EEEAF8" stroke-width="1.23" stroke-miterlimit="10"/>
<path d="M60.3036 121.222L58.0971 115.617C57.8456 114.976 57.7235 114.291 57.738 113.601C57.7524 112.912 57.9031 112.233 58.1812 111.602C58.4594 110.972 58.8596 110.402 59.3588 109.927C59.858 109.452 60.4463 109.08 61.0898 108.833C62.38 108.329 63.8171 108.356 65.0878 108.907C66.3586 109.458 67.36 110.489 67.8741 111.775L70.0806 117.393" stroke="#EEEAF8" stroke-width="1.23" stroke-miterlimit="10"/>
<path d="M102.708 200.042L92.7739 203.956C91.5423 204.441 90.9372 205.832 91.4223 207.064L95.3356 216.998C95.8207 218.23 97.2124 218.835 98.4439 218.35L108.378 214.437C109.61 213.951 110.215 212.56 109.73 211.328L105.817 201.394C105.331 200.162 103.94 199.557 102.708 200.042Z" stroke="#EEEAF8" stroke-width="1.23" stroke-miterlimit="10"/>
<path d="M91.7396 200.998L90.6744 198.297C90.4215 197.659 90.297 196.976 90.308 196.29C90.3191 195.603 90.4654 194.925 90.7387 194.295C91.0119 193.665 91.4067 193.095 91.9005 192.617C92.3943 192.14 92.9774 191.765 93.6164 191.513C94.9066 191.009 96.3436 191.036 97.6144 191.587C98.8851 192.138 99.8866 193.169 100.401 194.455L102.607 200.072" stroke="#EEEAF8" stroke-width="1.23" stroke-miterlimit="10"/>
<path d="M30.1228 179.681C30.1228 179.681 60.2908 113.74 131.57 139.698" stroke="#EEEAF8" stroke-width="1.23" stroke-miterlimit="10"/>
<path d="M16.2627 141.638C16.2627 141.638 45.86 76.9654 115.808 102.416" stroke="#EEEAF8" stroke-width="1.23" stroke-miterlimit="10"/>
<path d="M32.7351 186.351C32.7351 186.351 99.7666 213.996 134.183 146.368" stroke="#EEEAF8" stroke-width="1.23" stroke-miterlimit="10"/>
<path d="M50.2476 223.304C50.2476 223.304 113.906 249.553 146.623 185.337" stroke="#EEEAF8" stroke-width="1.23" stroke-miterlimit="10"/>
<path d="M96.9133 148.968L96.5963 147.434L93.4768 148.131L90.408 153.622C88.0204 153.192 85.6119 152.888 83.1925 152.709C80.3697 153.612 77.608 154.697 74.9246 155.955L73.238 162.727L67.2653 165.073C67.2653 165.073 64.0443 167.609 64.7291 169.296L65.3885 170.969L68.3432 172.352L69.9663 171.692L70.9301 171.312C71.2402 172.016 71.811 172.574 72.523 172.867C73.2349 173.16 74.0326 173.166 74.749 172.884C75.4654 172.602 76.0449 172.054 76.366 171.354C76.6872 170.655 76.725 169.858 76.4716 169.131L90.8899 163.45C91.2 164.154 91.7709 164.712 92.4828 165.005C93.1947 165.298 93.9924 165.304 94.7088 165.022C95.4252 164.74 96.0047 164.192 96.3258 163.492C96.647 162.792 96.6848 161.996 96.4315 161.269L98.8535 160.305L99.3481 156.361C98.9296 155.448 95.5438 154.573 92.0058 153.914L94.4659 149.501L96.9133 148.968ZM75.7488 161.18L76.6872 156.856L83.2813 154.319L84.8664 154.662L86.3121 157.109L75.7488 161.18Z" fill="#EEEAF8"/>
</g>
</g>
<defs>
<clipPath id="clip0_241_2100">
<rect width="286.171" height="240.279" fill="white" transform="translate(0.221191 0.879883)"/>
</clipPath>
</defs>
</svg>
