<svg width="12" height="13" viewBox="0 0 12 13" fill="none" xmlns="http://www.w3.org/2000/svg">
<g clip-path="url(#clip0_241_2016)">
<path d="M9.18213 6.61465L4.02644 11.7746C3.86658 11.9346 3.67341 12.0146 3.44693 12.0146C3.22045 12.0146 3.02062 11.9346 2.84743 11.7746C2.67424 11.6146 2.58765 11.4146 2.58765 11.1746C2.58765 10.9346 2.6809 10.7346 2.86741 10.5746L7.4236 6.01465L2.86741 1.45465C2.6809 1.29465 2.58765 1.09465 2.58765 0.854649C2.58765 0.614649 2.67424 0.414649 2.84743 0.254649C3.02062 0.0946484 3.22045 0.0146484 3.44693 0.0146484C3.67341 0.0146484 3.86658 0.0946484 4.02644 0.254649L9.18213 5.41465C9.36864 5.57465 9.4619 5.77465 9.4619 6.01465C9.4619 6.25465 9.36864 6.45465 9.18213 6.61465Z" fill="#160F31"/>
</g>
<defs>
<clipPath id="clip0_241_2016">
<rect width="11.96" height="12" fill="white" transform="matrix(1 0 0 -1 0.0249023 12.0146)"/>
</clipPath>
</defs>
</svg>
