<svg width="16" height="18" viewBox="0 0 16 18" fill="none" xmlns="http://www.w3.org/2000/svg">
<path d="M8.36197 17.7957C9.42239 17.7934 10.3272 16.8885 10.5048 15.6528H6.21912C6.39673 16.8885 7.30156 17.7934 8.36197 17.7957Z" fill="#6685F4"/>
<path d="M15.4351 14.3594C15.4171 14.3349 13.6299 11.8616 13.6299 9.81034V6.14734C13.6299 3.11281 11.1115 0.652832 8.00488 0.652832C4.8983 0.652832 2.37991 3.11281 2.37991 6.14734V9.81034C2.37991 11.8616 0.59267 14.3349 0.57467 14.3594C0.493065 14.4711 0.482185 14.6179 0.546479 14.7399C0.610774 14.8619 0.739462 14.9386 0.879918 14.9385H15.1298C15.2703 14.9386 15.399 14.8619 15.4633 14.7399C15.5276 14.6179 15.5167 14.4711 15.4351 14.3594Z" fill="#6685F4"/>
</svg>
