<svg width="150" height="45" viewBox="0 0 150 45" fill="none" xmlns="http://www.w3.org/2000/svg">
<path d="M22.3715 2.28491C10.9499 2.28491 1.69434 11.5148 1.69434 22.905C1.69434 33.7126 10.031 42.576 20.6452 43.4531C20.8619 43.4727 21.085 43.4924 21.3081 43.4989C21.6626 43.5186 22.0171 43.5251 22.3715 43.5251C22.8244 43.5251 23.2709 43.512 23.7171 43.4793C24.2751 43.4466 24.82 43.3877 25.3581 43.3091C25.6274 43.2698 25.8966 43.224 26.1658 43.1716C26.3428 43.1389 26.52 43.1062 26.6973 43.0604C26.7825 43.0407 26.8745 43.0211 26.9601 43.0014C31.5678 41.9672 35.5919 39.3945 38.4602 35.8597C41.3289 32.3183 43.0488 27.8146 43.0488 22.905C43.0488 11.5148 33.7932 2.28491 22.3715 2.28491ZM16.549 31.7422H10.4707V31.2709H16.549V31.7422ZM15.2888 28.8292V28.8881C15.2888 29.8831 14.5734 30.6294 13.5163 30.6294C12.4596 30.6294 11.7442 29.8831 11.7442 28.8881V28.8292C11.7442 28.3186 11.9278 27.8735 12.256 27.5593H10.4707V27.088H15.2888V27.5593H14.7769C15.1051 27.8735 15.2888 28.3186 15.2888 28.8292ZM16.549 26.4464H11.731V25.9751H12.2429C11.9147 25.6609 11.731 25.2158 11.731 24.7052V24.6462C11.731 23.6513 12.4464 22.905 13.5035 22.905C14.5602 22.905 15.2756 23.6513 15.2756 24.6462V24.7052C15.2756 25.2158 15.092 25.6609 14.7638 25.9751H16.549V26.4464ZM26.5005 40.0884C25.8767 40.239 25.2334 40.3568 24.5838 40.4354L19.4898 8.39244H19.4702C19.2273 8.43168 18.9843 8.47746 18.7481 8.52333C18.5577 8.55609 18.3673 8.60188 18.1837 8.64767C10.8515 10.3628 5.54086 16.4898 4.6681 23.7036C4.65463 23.4418 4.64822 23.1733 4.64822 22.905C4.64822 13.1449 12.5842 5.23064 22.3715 5.23064C32.1589 5.23064 40.0949 13.1449 40.0949 22.905C40.0949 31.2447 34.2986 38.2359 26.5005 40.0884Z" fill="white"/>
<path d="M116.665 37.5682V28.8952C118.185 30.4817 120.357 31.3984 122.854 31.3984C122.902 31.3984 122.951 31.3984 123 31.3962C123.048 31.3984 123.097 31.3984 123.145 31.3984C128.004 31.3984 131.635 27.9234 131.635 22.7716C131.635 17.6507 128.004 14.1757 123.145 14.1757C123.097 14.1757 123.048 14.1757 123 14.1779C122.951 14.1757 122.902 14.1757 122.854 14.1757C120.357 14.1757 118.185 15.0924 116.665 16.6833V14.1757H114.364V37.5682L116.665 37.5682ZM129.335 22.7871C129.335 26.2752 126.497 29.1045 123 29.1045C119.502 29.1045 116.665 26.2752 116.665 22.7871C116.665 19.2967 119.502 16.4696 123 16.4696C126.497 16.4696 129.335 19.2967 129.335 22.7871Z" fill="white"/>
<path d="M69.8216 21.768C68.8089 28.147 62.8031 32.4987 56.4027 31.4887C56.0417 31.433 55.6879 31.3588 55.3415 31.2696C55.2263 31.2399 55.1108 31.2102 54.999 31.1768C54.1874 30.9466 53.4204 30.6347 52.6981 30.2448V13.0052C53.413 12.5708 54.1836 12.2218 54.999 11.9767V28.8376C55.5575 29.0418 56.1422 29.194 56.7527 29.2906C57.1437 29.35 57.531 29.3908 57.9144 29.402C61.8946 29.5431 65.5138 27.1704 67.0067 23.5651C67.2898 22.893 67.4983 22.1727 67.6174 21.419C67.7999 20.2753 67.7663 19.1466 67.5503 18.0735C66.8169 14.4273 63.9499 11.4235 60.1113 10.6549C59.981 10.6288 59.8542 10.6066 59.7241 10.5843C57.1512 10.1796 54.6565 10.8442 52.6981 12.2515V9.63006C53.4241 9.24018 54.1949 8.92462 54.999 8.69809C56.5071 8.25998 58.1229 8.12627 59.7724 8.34537C59.873 8.35652 59.9735 8.37134 60.074 8.38621C65.3052 9.21421 69.1774 13.3691 69.8588 18.3445C70.0116 19.4547 70.0077 20.6058 69.8216 21.768Z" fill="white"/>
<path d="M103.853 14.2844C99.0767 13.5306 94.5946 16.7783 93.8388 21.5389C93.083 26.3023 96.3396 30.7719 101.113 31.5257C105.89 32.2794 110.372 29.0317 111.128 24.2711C111.884 19.5077 108.627 15.0381 103.853 14.2844ZM108.79 23.9011C108.236 27.3739 104.967 29.7431 101.484 29.1939C98.0021 28.6421 95.6262 25.3816 96.177 21.9089C96.7303 18.4362 99.9999 16.0669 103.482 16.6162C106.965 17.1679 109.34 20.4284 108.79 23.9011Z" fill="white"/>
<path d="M83.2187 14.2844C78.4422 13.5306 73.96 16.7783 73.2043 21.5389C72.4484 26.3023 75.7051 30.7719 80.4788 31.5257C85.2554 32.2794 89.7375 29.0317 90.4933 24.2711C91.2491 19.5077 87.9924 15.0381 83.2187 14.2844ZM88.155 23.9011C87.6018 27.3739 84.3322 29.7431 80.8498 29.1939C77.3676 28.6421 74.9917 25.3816 75.5425 21.9089C76.0958 18.4362 79.3654 16.0669 82.8477 16.6162C86.33 17.1679 88.7059 20.4284 88.155 23.9011Z" fill="white"/>
<path d="M148.316 29.4355V31.6344H134.762V9.00604H137.061V29.4355H148.316Z" fill="white"/>
</svg>
