<svg width="109" height="32" viewBox="0 0 109 32" fill="none" xmlns="http://www.w3.org/2000/svg">
<path d="M16.222 1.00354C7.93832 1.00354 1.22559 7.71622 1.22559 16C1.22559 23.86 7.27186 30.3061 14.97 30.9441C15.1271 30.9583 15.2889 30.9726 15.4507 30.9774C15.7078 30.9917 15.9649 30.9964 16.222 30.9964C16.5505 30.9964 16.8743 30.9869 17.1979 30.9631C17.6026 30.9393 17.9978 30.8965 18.3881 30.8393C18.5834 30.8107 18.7786 30.7774 18.9739 30.7393C19.1022 30.7155 19.2308 30.6917 19.3593 30.6584C19.4211 30.6441 19.4879 30.6298 19.5499 30.6155C22.8918 29.8634 25.8103 27.9923 27.8906 25.4216C29.9711 22.846 31.2185 19.5706 31.2185 16C31.2185 7.71622 24.5057 1.00354 16.222 1.00354ZM11.9992 22.427H7.5908V22.0843H11.9992V22.427ZM11.0851 20.3085V20.3513C11.0851 21.0749 10.5663 21.6177 9.79963 21.6177C9.03321 21.6177 8.51436 21.0749 8.51436 20.3513V20.3085C8.51436 19.9372 8.64756 19.6134 8.8856 19.3849H7.5908V19.0421H11.0851V19.3849H10.7139C10.9519 19.6134 11.0851 19.9372 11.0851 20.3085ZM11.9992 18.5755H8.50483V18.2328H8.87607C8.63803 18.0042 8.50483 17.6805 8.50483 17.3092V17.2663C8.50483 16.5427 9.02368 16 9.79033 16C10.5568 16 11.0756 16.5427 11.0756 17.2663V17.3092C11.0756 17.6805 10.9424 18.0042 10.7044 18.2328H11.9992V18.5755ZM19.2166 28.497C18.7642 28.6065 18.2977 28.6922 17.8265 28.7493L14.132 5.44538H14.1178C13.9416 5.47391 13.7654 5.50721 13.5941 5.54057C13.456 5.5644 13.3179 5.5977 13.1847 5.631C7.86696 6.87838 4.01533 11.3344 3.38235 16.5808C3.37258 16.3904 3.36794 16.1951 3.36794 16C3.36794 8.90171 9.12364 3.14589 16.222 3.14589C23.3204 3.14589 29.0761 8.90171 29.0761 16C29.0761 22.0652 24.8723 27.1497 19.2166 28.497Z" fill="white"/>
<path d="M84.6087 26.6641V20.3564C85.7112 21.5103 87.2866 22.1769 89.0974 22.1769C89.1327 22.1769 89.168 22.1769 89.2032 22.1753C89.2385 22.1769 89.2737 22.1769 89.309 22.1769C92.833 22.1769 95.466 19.6497 95.466 15.9029C95.466 12.1786 92.833 9.65137 89.309 9.65137C89.2737 9.65137 89.2385 9.65137 89.2032 9.65297C89.168 9.65137 89.1327 9.65137 89.0974 9.65137C87.2866 9.65137 85.7112 10.318 84.6087 11.4751V9.65137H82.9404V26.6641L84.6087 26.6641ZM93.7977 15.9142C93.7977 18.451 91.7401 20.5087 89.2032 20.5087C86.6663 20.5087 84.6087 18.451 84.6087 15.9142C84.6087 13.3757 86.6664 11.3196 89.2032 11.3196C91.74 11.3196 93.7977 13.3757 93.7977 15.9142Z" fill="white"/>
<path d="M50.6358 15.173C49.9014 19.8123 45.5456 22.9772 40.9036 22.2426C40.6417 22.2021 40.3852 22.1481 40.134 22.0833C40.0504 22.0617 39.9666 22.0401 39.8856 22.0158C39.297 21.8484 38.7407 21.6216 38.2168 21.338V8.80012C38.7353 8.48413 39.2942 8.23031 39.8856 8.05211V20.3146C40.2906 20.4631 40.7147 20.5738 41.1574 20.644C41.441 20.6872 41.7219 20.7169 42 20.725C44.8867 20.8276 47.5115 19.1021 48.5943 16.48C48.7996 15.9912 48.9508 15.4674 49.0372 14.9192C49.1696 14.0874 49.1452 13.2665 48.9886 12.4861C48.4567 9.83433 46.3773 7.64976 43.5933 7.09076C43.4988 7.07184 43.4069 7.05565 43.3125 7.03947C41.4465 6.7451 39.6371 7.22848 38.2168 8.25194V6.34545C38.7433 6.06189 39.3024 5.8324 39.8856 5.66765C40.9793 5.34902 42.1512 5.25178 43.3475 5.41112C43.4205 5.41923 43.4934 5.43001 43.5663 5.44082C47.3603 6.043 50.1687 9.06476 50.6629 12.6833C50.7736 13.4907 50.7708 14.3278 50.6358 15.173Z" fill="white"/>
<path d="M75.3177 9.73039C71.8535 9.18222 68.6027 11.5442 68.0546 15.0064C67.5064 18.4707 69.8684 21.7213 73.3306 22.2695C76.7948 22.8177 80.0456 20.4557 80.5937 16.9935C81.1419 13.5292 78.7799 10.2785 75.3177 9.73039ZM78.8979 16.7244C78.4966 19.25 76.1253 20.9731 73.5996 20.5737C71.0741 20.1724 69.351 17.8011 69.7504 15.2755C70.1517 12.7499 72.523 11.0268 75.0486 11.4262C77.5742 11.8275 79.2973 14.1988 78.8979 16.7244Z" fill="white"/>
<path d="M60.3519 9.73039C56.8876 9.18222 53.6369 11.5442 53.0888 15.0064C52.5406 18.4707 54.9026 21.7213 58.3648 22.2695C61.829 22.8177 65.0798 20.4557 65.6279 16.9935C66.1761 13.5292 63.8141 10.2785 60.3519 9.73039ZM63.932 16.7244C63.5308 19.25 61.1595 20.9731 58.6338 20.5737C56.1083 20.1724 54.3851 17.8011 54.7846 15.2755C55.1859 12.7499 57.5572 11.0268 60.0828 11.4262C62.6084 11.8275 64.3315 14.1988 63.932 16.7244Z" fill="white"/>
<path d="M107.564 20.7494V22.3486H97.7344V5.8916H99.4016V20.7494H107.564Z" fill="white"/>
</svg>
