<svg width="317" height="316" viewBox="0 0 317 316" fill="none" xmlns="http://www.w3.org/2000/svg">
<g opacity="0.34">
<g clip-path="url(#clip0_241_2018)">
<path d="M269.437 268.335C330.856 207.168 330.856 107.995 269.437 46.8278C208.018 -14.3398 108.439 -14.3398 47.02 46.8278C-14.3988 107.995 -14.3988 207.168 47.02 268.335C108.439 329.503 208.018 329.503 269.437 268.335Z" stroke="#EEEAF8" stroke-width="1.05" stroke-miterlimit="10"/>
<path d="M225.038 162.186C226.547 158.124 227.249 153.809 227.106 149.481C226.168 136.759 198.568 122.496 176.391 113.443C154.214 104.391 124.529 95.1997 114.883 103.681C111.735 106.691 109.198 110.276 107.409 114.24C105.618 117.983 104.27 121.921 103.394 125.975C100.075 140.774 90.0464 187.578 89.0905 198.673C88.0651 210.686 90.1507 218.578 94.8433 224.948C96.5813 227.32 101.048 230.366 105.932 233.239C117.251 239.901 129.481 244.892 142.239 248.056C147.731 249.423 153.049 250.375 155.969 249.89C163.808 248.627 170.847 244.473 178.563 235.195C185.724 226.541 211.586 186.262 219.615 173.402C221.855 169.886 223.675 166.122 225.038 162.186Z" stroke="#EEEAF8" stroke-width="1.06" stroke-miterlimit="10"/>
<path d="M209.674 158.257C210.87 155.082 211.459 151.712 211.412 148.321C210.838 138.421 190.104 127.55 173.401 120.8C156.699 114.049 134.331 107.195 126.927 113.876C124.501 116.251 122.544 119.057 121.157 122.15C119.752 125.084 118.685 128.168 117.976 131.341C115.317 142.904 107.201 179.495 106.349 188.167C105.445 197.548 106.94 203.745 110.416 208.591C112.807 211.159 115.616 213.306 118.724 214.944C127.203 219.988 136.395 223.734 145.993 226.056C149.37 227.071 152.897 227.504 156.421 227.337C162.365 226.264 167.753 222.958 173.801 215.636C179.311 208.868 199.315 177.124 205.572 167.015C207.266 164.259 208.642 161.321 209.674 158.257Z" stroke="#EEEAF8" stroke-width="0.82" stroke-miterlimit="10"/>
<path d="M164.207 288.715C186.513 287.89 208.24 281.418 227.337 269.909C246.434 258.401 262.271 242.236 273.355 222.94C273.355 222.94 232.859 221.936 222.587 222.94C212.316 223.944 202.861 228.998 186.402 248.021C169.943 267.044 160.818 278.156 160.818 278.156C160.818 278.156 148.409 290.272 163.929 288.715H164.207Z" stroke="#EEEAF8" stroke-width="1.05" stroke-miterlimit="10"/>
<path d="M62.5685 247.346C72.5968 259.237 72.2318 241.998 72.2318 241.998C72.2318 241.998 73.4658 227.787 75.1517 202.723C76.8376 177.66 73.657 167.482 67.0526 159.572C60.4481 151.662 30.9019 124.088 30.9019 124.088C25.2233 145.569 25.1316 168.136 30.6355 189.661C36.1393 211.187 47.0573 230.961 62.3599 247.121L62.5685 247.346Z" stroke="#EEEAF8" stroke-width="1.05" stroke-miterlimit="10"/>
<path d="M73.9524 219.946L72.5272 288.957" stroke="#EEEAF8" stroke-width="1.05" stroke-miterlimit="10"/>
<path d="M175.157 261.245L127.535 311.407" stroke="#EEEAF8" stroke-width="1.05" stroke-miterlimit="10"/>
<path d="M122.495 100.652C122.495 100.652 75.5687 88.5359 68.4255 83.4816C61.2823 78.4274 56.4506 73.979 63.3331 67.315L62.1686 68.5439C80.3457 49.1103 104.036 35.652 130.084 29.9608C156.132 24.2696 183.304 26.6156 207.98 36.6864C232.656 46.7571 253.667 64.0749 268.215 86.3339C282.763 108.593 290.157 134.737 289.414 161.286V159.555C289.622 169.109 283.07 168.919 274.397 167.534C265.725 166.15 223.821 141.934 223.821 141.934" stroke="#EEEAF8" stroke-width="1.05" stroke-miterlimit="10"/>
<path d="M255.244 159.243C255.244 159.243 274.554 169.109 278.36 184.636C282.166 200.162 279.298 216.951 277.908 219.773C277.524 220.897 276.748 221.846 275.721 222.449C274.695 223.053 273.485 223.27 272.312 223.062" stroke="#EEEAF8" stroke-width="1.05" stroke-miterlimit="10"/>
<path d="M87.6132 90.7858C87.6132 90.7858 66.9134 84.3122 53.27 92.7071C39.6267 101.102 29.8243 115.088 28.8162 118.065C27.8082 121.042 28.99 122.236 30.9887 124.123" stroke="#EEEAF8" stroke-width="1.05" stroke-miterlimit="10"/>
<path d="M111.493 236.978L104.733 260.968C104.399 262.138 104.511 263.389 105.046 264.481C105.582 265.574 106.504 266.431 107.635 266.888L111.563 268.498C112.655 268.958 113.876 269.015 115.006 268.66C116.137 268.305 117.104 267.56 117.733 266.559L130.785 244.957" stroke="#EEEAF8" stroke-width="1.05" stroke-miterlimit="10"/>
<path d="M36.0464 107.714L95.8861 161.043" stroke="#EEEAF8" stroke-width="1.05" stroke-miterlimit="10"/>
<path d="M279.855 207.224L199.645 203.381" stroke="#EEEAF8" stroke-width="1.05" stroke-miterlimit="10"/>
<path d="M110.381 97.415C110.381 97.415 89.8553 108.926 81.6866 118.117C76.8319 123.533 72.3658 129.282 68.3213 135.322" stroke="#EEEAF8" stroke-width="1.05" stroke-miterlimit="10"/>
<path d="M83.4245 116.247C83.2507 116.42 49.6376 95.1304 49.6376 95.1304" stroke="#EEEAF8" stroke-width="1.05" stroke-miterlimit="10"/>
<path d="M64.6714 104.927C64.6714 104.927 55.9814 114.811 51.2714 121.284" stroke="#EEEAF8" stroke-width="1.05" stroke-miterlimit="10"/>
<path d="M233.971 147.854C233.971 147.854 240.489 170.355 239.863 182.697C239.507 189.931 238.642 197.132 237.273 204.246" stroke="#EEEAF8" stroke-width="1.05" stroke-miterlimit="10"/>
<path d="M239.846 180.101C239.846 180.343 278.812 188.755 278.812 188.755" stroke="#EEEAF8" stroke-width="1.05" stroke-miterlimit="10"/>
<path d="M261.241 185.207C261.241 185.207 260.528 198.396 259.259 206.237" stroke="#EEEAF8" stroke-width="1.05" stroke-miterlimit="10"/>
</g>
</g>
<defs>
<clipPath id="clip0_241_2018">
<rect width="316.475" height="315.18" fill="white"/>
</clipPath>
</defs>
</svg>
