<svg width="308" height="316" viewBox="0 0 308 316" fill="none" xmlns="http://www.w3.org/2000/svg">
<g opacity="0.34">
<g clip-path="url(#clip0_241_2018)">
<path d="M260.967 268.641C322.386 207.474 322.386 108.302 260.967 47.134C199.549 -14.0336 99.9691 -14.0336 38.5502 47.134C-22.8685 108.302 -22.8685 207.474 38.5502 268.641C99.9691 329.809 199.549 329.809 260.967 268.641Z" stroke="#EEEAF8" stroke-width="1.05" stroke-miterlimit="10"/>
<path d="M216.568 162.492C218.077 158.43 218.779 154.115 218.636 149.787C217.698 137.065 190.098 122.802 167.921 113.75C145.744 104.697 116.059 95.5058 106.413 103.987C103.265 106.997 100.728 110.582 98.9394 114.546C97.1479 118.289 95.8005 122.227 94.9246 126.281C91.605 141.081 81.5767 187.884 80.6208 198.979C79.5954 210.992 81.681 218.885 86.3736 225.254C88.1116 227.626 92.5783 230.672 97.4621 233.545C108.781 240.207 121.011 245.198 133.769 248.362C139.261 249.729 144.58 250.681 147.499 250.197C155.338 248.933 162.377 244.779 170.094 235.501C177.254 226.847 203.116 186.569 211.145 173.708C213.385 170.192 215.205 166.428 216.568 162.492Z" stroke="#EEEAF8" stroke-width="1.06" stroke-miterlimit="10"/>
<path d="M201.204 158.563C202.4 155.388 202.989 152.018 202.942 148.627C202.369 138.727 181.634 127.857 164.932 121.106C148.229 114.356 125.861 107.501 118.457 114.183C116.031 116.557 114.074 119.363 112.687 122.456C111.282 125.391 110.215 128.474 109.507 131.647C106.847 143.21 98.7309 179.801 97.8792 188.473C96.9755 197.854 98.4702 204.051 101.946 208.898C104.337 211.465 107.146 213.612 110.254 215.25C118.733 220.294 127.926 224.04 137.523 226.362C140.901 227.377 144.427 227.811 147.951 227.643C153.895 226.57 159.283 223.264 165.331 215.942C170.841 209.174 190.845 177.43 197.102 167.321C198.797 164.565 200.173 161.627 201.204 158.563Z" stroke="#EEEAF8" stroke-width="0.82" stroke-miterlimit="10"/>
<path d="M155.738 289.021C178.043 288.196 199.77 281.724 218.867 270.216C237.964 258.707 253.802 242.542 264.885 223.246C264.885 223.246 224.389 222.243 214.117 223.246C203.846 224.25 194.391 229.305 177.932 248.327C161.473 267.35 152.349 278.462 152.349 278.462C152.349 278.462 139.939 290.579 155.46 289.021H155.738Z" stroke="#EEEAF8" stroke-width="1.05" stroke-miterlimit="10"/>
<path d="M54.0988 247.652C64.1271 259.543 63.7621 242.304 63.7621 242.304C63.7621 242.304 64.9961 228.093 66.682 203.029C68.3678 177.966 65.1873 167.788 58.5828 159.878C51.9784 151.968 22.4322 124.395 22.4322 124.395C16.7536 145.875 16.6619 168.442 22.1657 189.967C27.6696 211.493 38.5875 231.268 53.8902 247.427L54.0988 247.652Z" stroke="#EEEAF8" stroke-width="1.05" stroke-miterlimit="10"/>
<path d="M65.4827 220.252L64.0575 289.263" stroke="#EEEAF8" stroke-width="1.05" stroke-miterlimit="10"/>
<path d="M166.687 261.551L119.066 311.713" stroke="#EEEAF8" stroke-width="1.05" stroke-miterlimit="10"/>
<path d="M114.025 100.958C114.025 100.958 67.099 88.842 59.9558 83.7878C52.8125 78.7336 47.9809 74.2851 54.8634 67.6212L53.6989 68.8501C71.876 49.4165 95.5658 35.9582 121.614 30.267C147.663 24.5758 174.834 26.9217 199.51 36.9925C224.187 47.0633 245.197 64.381 259.745 86.6401C274.293 108.899 281.687 135.043 280.944 161.592V159.861C281.153 169.416 274.6 169.225 265.928 167.84C257.255 166.456 215.351 142.24 215.351 142.24" stroke="#EEEAF8" stroke-width="1.05" stroke-miterlimit="10"/>
<path d="M246.775 159.549C246.775 159.549 266.084 169.415 269.89 184.942C273.696 200.468 270.829 217.258 269.438 220.079C269.054 221.203 268.278 222.152 267.252 222.755C266.225 223.359 265.015 223.576 263.842 223.368" stroke="#EEEAF8" stroke-width="1.05" stroke-miterlimit="10"/>
<path d="M79.1434 91.0919C79.1434 91.0919 58.4437 84.6183 44.8003 93.0132C31.1569 101.408 21.3545 115.394 20.3465 118.371C19.3385 121.348 20.5203 122.542 22.519 124.429" stroke="#EEEAF8" stroke-width="1.05" stroke-miterlimit="10"/>
<path d="M103.024 237.284L96.2629 261.275C95.9292 262.444 96.0409 263.695 96.5765 264.788C97.1122 265.88 98.0341 266.737 99.1654 267.194L103.093 268.804C104.185 269.264 105.406 269.321 106.537 268.966C107.667 268.611 108.634 267.866 109.263 266.865L122.316 245.264" stroke="#EEEAF8" stroke-width="1.05" stroke-miterlimit="10"/>
<path d="M27.5767 108.021L87.4164 161.35" stroke="#EEEAF8" stroke-width="1.05" stroke-miterlimit="10"/>
<path d="M271.385 207.53L191.176 203.688" stroke="#EEEAF8" stroke-width="1.05" stroke-miterlimit="10"/>
<path d="M101.911 97.7212C101.911 97.7212 81.3855 109.232 73.2169 118.423C68.3622 123.839 63.8961 129.588 59.8516 135.628" stroke="#EEEAF8" stroke-width="1.05" stroke-miterlimit="10"/>
<path d="M74.9548 116.554C74.781 116.727 41.1678 95.4365 41.1678 95.4365" stroke="#EEEAF8" stroke-width="1.05" stroke-miterlimit="10"/>
<path d="M56.2017 105.233C56.2017 105.233 47.5116 115.117 42.8016 121.59" stroke="#EEEAF8" stroke-width="1.05" stroke-miterlimit="10"/>
<path d="M225.501 148.16C225.501 148.16 232.019 170.661 231.393 183.003C231.038 190.238 230.172 197.438 228.804 204.552" stroke="#EEEAF8" stroke-width="1.05" stroke-miterlimit="10"/>
<path d="M231.376 180.407C231.376 180.649 270.342 189.061 270.342 189.061" stroke="#EEEAF8" stroke-width="1.05" stroke-miterlimit="10"/>
<path d="M252.771 185.513C252.771 185.513 252.058 198.702 250.79 206.543" stroke="#EEEAF8" stroke-width="1.05" stroke-miterlimit="10"/>
</g>
</g>
<defs>
<clipPath id="clip0_241_2018">
<rect width="316.475" height="315.18" fill="white" transform="translate(-8.46973 0.306152)"/>
</clipPath>
</defs>
</svg>
