<svg width="65" height="65" viewBox="0 0 65 65" fill="none" xmlns="http://www.w3.org/2000/svg">
<g clip-path="url(#clip0_241_1917)">
<path d="M64.6199 32.6171C64.6199 14.814 50.1877 0.381836 32.3846 0.381836C14.5816 0.381836 0.149414 14.814 0.149414 32.6171C0.149414 50.4201 14.5816 64.8523 32.3846 64.8523C50.1877 64.8523 64.6199 50.4201 64.6199 32.6171Z" fill="#6666F4" fill-opacity="0.12"/>
<path d="M32.3843 32.6231C36.1648 32.6231 39.2295 29.5584 39.2295 25.7778C39.2295 21.9973 36.1648 18.9326 32.3843 18.9326C28.6038 18.9326 25.5391 21.9973 25.5391 25.7778C25.5391 29.5584 28.6038 32.6231 32.3843 32.6231Z" fill="#6685F4"/>
<path d="M45.1551 43.7519C45.4693 45.016 44.3848 46.0877 43.0822 46.0877H21.686C20.3833 46.0877 19.2989 45.016 19.6131 43.7519C20.8681 38.7023 26.1092 34.9143 32.3841 34.9143C38.659 34.9143 43.9001 38.7023 45.1551 43.7519Z" fill="#C2C2FB"/>
<path d="M41.4765 45.0508C44.1104 45.0508 46.2456 42.9156 46.2456 40.2816C46.2456 37.6477 44.1104 35.5125 41.4765 35.5125C38.8425 35.5125 36.7073 37.6477 36.7073 40.2816C36.7073 42.9156 38.8425 45.0508 41.4765 45.0508Z" fill="#6685F4"/>
<path d="M43.2 42.0054L46.2455 45.0508" stroke="#6685F4" stroke-width="3" stroke-linecap="round"/>
</g>
<defs>
<clipPath id="clip0_241_1917">
<rect width="64.4705" height="64.4705" fill="white" transform="translate(0.149414 0.381836)"/>
</clipPath>
</defs>
</svg>
