<svg width="65" height="65" viewBox="0 0 65 65" fill="none" xmlns="http://www.w3.org/2000/svg">
<g clip-path="url(#clip0_241_1908)">
<path d="M64.7715 32.6171C64.7715 14.9044 50.4125 0.54541 32.6998 0.54541C14.9871 0.54541 0.628174 14.9044 0.628174 32.6171C0.628174 50.3298 14.9871 64.6888 32.6998 64.6888C50.4125 64.6888 64.7715 50.3298 64.7715 32.6171Z" fill="#6666F4" fill-opacity="0.12"/>
<path d="M19.4622 31.2832C19.4622 29.3392 21.0382 27.7632 22.9822 27.7632H27.9101V43.5783H20.6355C19.9875 43.5783 19.4622 43.053 19.4622 42.405V31.2832Z" fill="#C2C2FB"/>
<path d="M27.9102 22.8399C27.9102 20.8958 29.4861 19.3198 31.4302 19.3198H33.9687C35.9127 19.3198 37.4887 20.8958 37.4887 22.8399V43.5783H27.9102V22.8399Z" fill="#6685F4"/>
<path d="M37.4888 31.4414H42.4166C44.3607 31.4414 45.9368 33.0174 45.9368 34.9615V42.405C45.9368 43.053 45.4114 43.5783 44.7634 43.5783H37.4888V31.4414Z" fill="#C2C2FB"/>
</g>
<defs>
<clipPath id="clip0_241_1908">
<rect width="64.1433" height="64.1433" fill="white" transform="translate(0.628174 0.54541)"/>
</clipPath>
</defs>
</svg>
