<svg width="19" height="19" viewBox="0 0 19 19" fill="none" xmlns="http://www.w3.org/2000/svg">
<g clip-path="url(#clip0_241_2144)">
<path d="M5.69216 16.7814C12.4854 16.7814 16.2006 11.1546 16.2006 6.27302C16.2006 6.11462 16.2006 5.95262 16.2006 5.79422C16.9194 5.2716 17.5398 4.62559 18.033 3.88622C17.3591 4.18429 16.6443 4.37966 15.9126 4.46582C16.6833 4.00473 17.2603 3.27934 17.5362 2.42462C16.8105 2.855 16.0167 3.15816 15.189 3.32102C14.6318 2.72967 13.8954 2.33832 13.0935 2.20746C12.2916 2.0766 11.469 2.21352 10.7527 2.59704C10.0365 2.98058 9.46653 3.58936 9.13091 4.32929C8.79536 5.06922 8.71286 5.8991 8.89616 6.69062C7.42795 6.61691 5.99166 6.23523 4.68054 5.57037C3.36942 4.90551 2.2128 3.97233 1.28576 2.83142C0.814422 3.64453 0.670442 4.60663 0.883091 5.52211C1.09575 6.43758 1.64907 7.23771 2.43056 7.75982C1.84338 7.74642 1.26802 7.59208 0.752959 7.30982V7.35662C0.752723 8.20955 1.04768 9.03627 1.58775 9.69642C2.12781 10.3566 2.8797 10.8095 3.71576 10.9782C3.17241 11.1269 2.60221 11.149 2.04896 11.043C2.28511 11.7763 2.74443 12.4176 3.36276 12.8771C3.98108 13.3366 4.72751 13.5915 5.49776 13.6062C4.1901 14.634 2.57462 15.192 0.911359 15.1902C0.617544 15.1858 0.324241 15.1641 0.032959 15.1254C1.72104 16.2097 3.68583 16.7847 5.69216 16.7814Z" fill="#0A0AF5"/>
</g>
<defs>
<clipPath id="clip0_241_2144">
<rect width="18" height="18" fill="white" transform="translate(0.032959 0.469727)"/>
</clipPath>
</defs>
</svg>
