<svg width="24" height="168" viewBox="0 0 24 168" fill="none" xmlns="http://www.w3.org/2000/svg"><path d="M16.5049 93.3279L7.77761 93.3279L7.77761 87.6518L9.10289 87.6518L9.10289 91.747L11.4722 91.747L11.4722 87.9458L12.7975 87.9458L12.7975 91.747L15.1796 91.747L15.1796 87.6177L16.5049 87.6177L16.5049 93.3279ZM7.77761 84.1178L10.9736 82.196L10.9736 82.1278L7.77761 80.1974L7.77761 78.3948L12.1412 81.0837L16.5049 78.3522L16.5049 80.1846L13.3302 82.1278L13.3302 82.196L16.5049 84.1391L16.5049 85.963L12.1412 83.2059L7.77761 85.9289L7.77761 84.1178ZM16.5049 76.5537L7.77761 76.5537L7.77761 73.281C7.77761 72.6105 7.90261 72.048 8.15261 71.5935C8.40261 71.1361 8.74636 70.7909 9.18386 70.558C9.61852 70.3222 10.1128 70.2043 10.6668 70.2043C11.2265 70.2043 11.7236 70.3222 12.1583 70.558C12.5929 70.7938 12.9353 71.1418 13.1853 71.602C13.4324 72.0622 13.556 72.629 13.556 73.3023L13.556 75.4713L12.2563 75.4713L12.2563 73.5154C12.2563 73.1233 12.1881 72.8023 12.0518 72.5523C11.9154 72.3023 11.7279 72.1176 11.4893 71.9983C11.2506 71.8761 10.9765 71.8151 10.6668 71.8151C10.3572 71.8151 10.0844 71.8761 9.84863 71.9983C9.61284 72.1176 9.4296 72.3037 9.29892 72.5565C9.16539 72.8065 9.09863 73.129 9.09863 73.5239L9.09863 74.9727L16.5049 74.9727L16.5049 76.5537ZM16.5049 68.2311L7.77761 68.2311L7.77761 66.6501L15.1796 66.6501L15.1796 62.8063L16.5049 62.8063L16.5049 68.2311ZM12.1412 53.3757C13.0816 53.3757 13.887 53.5519 14.5574 53.9041C15.2251 54.2536 15.7364 54.7308 16.0915 55.3359C16.4466 55.9382 16.6242 56.6215 16.6242 57.3857C16.6242 58.1499 16.4466 58.8345 16.0915 59.4396C15.7336 60.0419 15.2208 60.5192 14.5532 60.8715C13.8827 61.2209 13.0787 61.3956 12.1412 61.3956C11.2009 61.3956 10.3969 61.2209 9.72931 60.8715C9.05886 60.5192 8.54607 60.0419 8.19096 59.4396C7.83585 58.8345 7.65829 58.1499 7.65829 57.3857C7.65829 56.6215 7.83585 55.9382 8.19096 55.3359C8.54607 54.7308 9.05886 54.2536 9.72931 53.9041C10.3969 53.5519 11.2009 53.3757 12.1412 53.3757ZM12.1412 54.9652C11.4793 54.9652 10.9211 55.0689 10.4665 55.2763C10.0091 55.4808 9.66397 55.7649 9.43102 56.1286C9.19522 56.4922 9.07732 56.9112 9.07732 57.3857C9.07732 57.8601 9.19522 58.2791 9.43102 58.6428C9.66397 59.0064 10.0091 59.2919 10.4665 59.4993C10.9211 59.7038 11.4793 59.8061 12.1412 59.8061C12.8032 59.8061 13.3628 59.7038 13.8202 59.4993C14.2748 59.2919 14.6199 59.0064 14.8557 58.6428C15.0887 58.2791 15.2052 57.8601 15.2052 57.3857C15.2052 56.9112 15.0887 56.4922 14.8557 56.1286C14.6199 55.7649 14.2748 55.4808 13.8202 55.2763C13.3628 55.0689 12.8032 54.9652 12.1412 54.9652ZM16.5049 51.281L7.77761 51.281L7.77761 48.0083C7.77761 47.3379 7.89408 46.7754 8.12704 46.3208C8.35999 45.8634 8.6867 45.5183 9.10715 45.2853C9.52477 45.0495 10.012 44.9316 10.5688 44.9316C11.1285 44.9316 11.6143 45.0509 12.0262 45.2896C12.4353 45.5254 12.752 45.8734 12.9765 46.3336C13.1981 46.7938 13.3089 47.3592 13.3089 48.0296L13.3089 50.3606L11.9964 50.3606L11.9964 48.2427C11.9964 47.8507 11.9424 47.5296 11.8344 47.2796C11.7236 47.0296 11.5631 46.845 11.3529 46.7257C11.1398 46.6035 10.8785 46.5424 10.5688 46.5424C10.2591 46.5424 9.99494 46.6035 9.77619 46.7257C9.5546 46.8478 9.38698 47.0339 9.27335 47.2839C9.15687 47.5339 9.09863 47.8563 9.09863 48.2512L9.09863 49.7001L16.5049 49.7001L16.5049 51.281ZM12.5503 46.7725L16.5049 44.612L16.5049 46.3762L12.5503 48.4984L12.5503 46.7725ZM16.5049 42.8764L7.77761 42.8764L7.77761 37.2002L9.10289 37.2002L9.10289 41.2954L11.4722 41.2954L11.4722 37.4943L12.7975 37.4943L12.7975 41.2954L15.1796 41.2954L15.1796 37.1661L16.5049 37.1661L16.5049 42.8764ZM7.77761 24.2389L16.5049 24.2389L16.5049 25.6451L10.5603 29.7573L10.5603 29.8298L16.5049 29.8298L16.5049 31.4107L7.77761 31.4107L7.77761 29.996L13.7265 25.888L13.7265 25.8113L7.77761 25.8113L7.77761 24.2389ZM12.1412 14.1179C13.0816 14.1179 13.887 14.294 14.5574 14.6463C15.225 14.9957 15.7364 15.473 16.0915 16.0781C16.4466 16.6804 16.6242 17.3636 16.6242 18.1279C16.6242 18.8921 16.4466 19.5767 16.0915 20.1818C15.7336 20.7841 15.2208 21.2614 14.5532 21.6136C13.8827 21.9631 13.0787 22.1378 12.1412 22.1378C11.2009 22.1378 10.3969 21.9631 9.72931 21.6136C9.05886 21.2614 8.54607 20.7841 8.19096 20.1818C7.83585 19.5767 7.65829 18.8921 7.65829 18.1279C7.65829 17.3636 7.83584 16.6804 8.19096 16.0781C8.54607 15.473 9.05886 14.9957 9.72931 14.6463C10.3969 14.294 11.2009 14.1179 12.1412 14.1179ZM12.1412 15.7074C11.4793 15.7074 10.9211 15.8111 10.4665 16.0185C10.0091 16.223 9.66397 16.5071 9.43102 16.8708C9.19522 17.2344 9.07732 17.6534 9.07732 18.1279C9.07732 18.6023 9.19522 19.0213 9.43102 19.385C9.66397 19.7486 10.0091 20.0341 10.4665 20.2415C10.9211 20.446 11.4793 20.5483 12.1412 20.5483C12.8032 20.5483 13.3628 20.446 13.8202 20.2415C14.2748 20.0341 14.6199 19.7486 14.8557 19.385C15.0887 19.0213 15.2052 18.6023 15.2052 18.1279C15.2052 17.6534 15.0887 17.2344 14.8557 16.8707C14.6199 16.5071 14.2748 16.223 13.8202 16.0185C13.3628 15.8111 12.8032 15.7074 12.1412 15.7074ZM16.5049 10.4092L7.77761 12.8723L7.77761 11.172L14.191 9.59959L14.191 9.51862L7.77761 7.83964L7.77761 6.29277L14.1952 4.60953L14.1952 4.53282L7.77761 2.96038L7.77761 1.2601L16.5049 3.72317L16.5049 5.28282L10.3813 7.02998L10.3813 7.09817L16.5049 8.84959L16.5049 10.4092Z" fill="white"/><path d="M11.4746 167.137C11.7674 167.43 12.2423 167.43 12.5352 167.137L17.3082 162.364C17.6011 162.071 17.6011 161.596 17.3082 161.303C17.0153 161.01 16.5404 161.01 16.2475 161.303L12.0049 165.546L7.76224 161.303C7.46935 161.01 6.99448 161.01 6.70158 161.303C6.40869 161.596 6.40869 162.071 6.70158 162.364L11.4746 167.137ZM12.0049 109.607L11.2549 109.607L11.2549 166.607L12.0049 166.607L12.7549 166.607L12.7549 109.607L12.0049 109.607Z" fill="white"/></svg>