<svg width="19" height="19" viewBox="0 0 19 19" fill="none" xmlns="http://www.w3.org/2000/svg">
<g clip-path="url(#clip0_241_2157)">
<path d="M9.12431 6.46845C7.47171 6.46845 6.12307 7.81711 6.12307 9.46973C6.12307 11.1224 7.47171 12.471 9.12431 12.471C10.7769 12.471 12.1255 11.1224 12.1255 9.46973C12.1255 7.81711 10.7769 6.46845 9.12431 6.46845ZM18.1257 9.46973C18.1257 8.2269 18.137 6.9953 18.0672 5.75471C17.9973 4.31375 17.6687 3.03488 16.6149 1.98116C15.559 0.925203 14.2824 0.598733 12.8415 0.528936C11.5986 0.459139 10.3671 0.470396 9.12656 0.470396C7.88373 0.470396 6.65217 0.459139 5.4116 0.528936C3.97065 0.598733 2.69181 0.927455 1.63812 1.98116C0.582177 3.03713 0.255713 4.31375 0.185917 5.75471C0.116121 6.99755 0.127379 8.22915 0.127379 9.46973C0.127379 10.7103 0.116121 11.9441 0.185917 13.1847C0.255713 14.6257 0.584429 15.9046 1.63812 16.9583C2.69406 18.0143 3.97065 18.3407 5.4116 18.4106C6.65442 18.4803 7.88598 18.4691 9.12656 18.4691C10.3694 18.4691 11.6009 18.4803 12.8415 18.4106C14.2824 18.3407 15.5613 18.012 16.6149 16.9583C17.6709 15.9023 17.9973 14.6257 18.0672 13.1847C18.1392 11.9441 18.1257 10.7126 18.1257 9.46973ZM9.12431 14.0876C6.56886 14.0876 4.50651 12.0252 4.50651 9.46973C4.50651 6.91425 6.56886 4.85186 9.12431 4.85186C11.6797 4.85186 13.7421 6.91425 13.7421 9.46973C13.7421 12.0252 11.6797 14.0876 9.12431 14.0876ZM13.9312 5.74121C13.3346 5.74121 12.8527 5.25938 12.8527 4.66273C12.8527 4.06607 13.3346 3.58425 13.9312 3.58425C14.5278 3.58425 15.0096 4.06607 15.0096 4.66273C15.0099 4.8044 14.982 4.94473 14.928 5.07566C14.8738 5.20658 14.7944 5.32554 14.6942 5.42573C14.594 5.5259 14.475 5.60534 14.3441 5.65948C14.2132 5.71361 14.0729 5.74139 13.9312 5.74121Z" fill="#8E9CA1"/>
</g>
<defs>
<clipPath id="clip0_241_2157">
<rect width="18" height="18" fill="white" transform="translate(0.126709 0.469727)"/>
</clipPath>
</defs>
</svg>
