<svg width="66" height="65" viewBox="0 0 66 65" fill="none" xmlns="http://www.w3.org/2000/svg">
<g clip-path="url(#clip0_241_1927)">
<path d="M65.2905 32.6171C65.2905 14.814 50.8583 0.381836 33.0553 0.381836C15.2523 0.381836 0.820068 14.814 0.820068 32.6171C0.820068 50.4201 15.2523 64.8523 33.0553 64.8523C50.8583 64.8523 65.2905 50.4201 65.2905 32.6171Z" fill="#6666F4" fill-opacity="0.12"/>
<path d="M33.0552 20.4492V45.4892L31.8527 46.8569C30.1844 48.7506 28.8167 48.2397 28.8167 45.7146V34.893H24.1724C22.0682 34.893 21.4821 33.6005 22.8798 32.0223L33.0552 20.4492Z" fill="#6685F4"/>
<path opacity="0.4" d="M43.2306 33.9162L33.0553 45.4893V20.4493L34.2577 19.0816C35.926 17.1878 37.2938 17.6988 37.2938 20.2238V31.0454H41.938C44.0422 31.0454 44.6284 32.338 43.2306 33.9162Z" fill="#6685F4"/>
</g>
<defs>
<clipPath id="clip0_241_1927">
<rect width="64.4705" height="64.4705" fill="white" transform="translate(0.820068 0.381836)"/>
</clipPath>
</defs>
</svg>
