<svg width="19" height="19" viewBox="0 0 19 19" fill="none" xmlns="http://www.w3.org/2000/svg">
<g clip-path="url(#clip0_241_2148)">
<path d="M4.33011 5.20703H0.539307V18.4694H4.33011V5.20703Z" fill="#8E9CA1"/>
<path d="M13.3267 5.20703C10.6843 5.20703 10.2271 6.17183 10.0111 7.10063V5.20703H6.22388V18.4694H10.0111V10.8915C10.0111 9.66387 10.6771 8.99787 11.9047 8.99787C13.1323 8.99787 13.7983 9.64947 13.7983 10.8915V18.4694H17.5891V11.8382C17.5891 8.04747 17.0959 5.20703 13.3267 5.20703Z" fill="#8E9CA1"/>
<path d="M2.43291 4.25693C3.47871 4.25693 4.32651 3.40913 4.32651 2.36333C4.32651 1.31752 3.47871 0.469727 2.43291 0.469727C1.3871 0.469727 0.539307 1.31752 0.539307 2.36333C0.539307 3.40913 1.3871 4.25693 2.43291 4.25693Z" fill="#8E9CA1"/>
</g>
<defs>
<clipPath id="clip0_241_2148">
<rect width="18" height="18" fill="white" transform="translate(0.064209 0.469727)"/>
</clipPath>
</defs>
</svg>
